<?xml version="1.0" encoding="utf-8"?>
<!-- Generator: Adobe Illustrator 25.2.3, SVG Export Plug-In . SVG Version: 6.00 Build 0)  -->
<svg version="1.2" baseProfile="tiny" id="Layer_1" xmlns="http://www.w3.org/2000/svg" xmlns:xlink="http://www.w3.org/1999/xlink"
	 x="0px" y="0px" viewBox="0 0 512 512" overflow="visible" xml:space="preserve">
<path fill="#C70039" d="M408.5,43.5h-305c-33.1,0-60,26.9-60,60v305c0,33.1,26.9,60,60,60h305c33.1,0,60-26.9,60-60v-305
	C468.5,70.4,441.6,43.5,408.5,43.5z M269,239c0,16.6-13.4,30-30,30H124c-16.6,0-30-13.4-30-30V124c0-16.6,13.4-30,30-30h115
	c16.6,0,30,13.4,30,30V239z"/>
</svg>
